<?xml version="1.0" encoding="UTF-8"?>
<!DOCTYPE svg PUBLIC "-//W3C//DTD SVG 1.1//EN" "http://www.w3.org/Graphics/SVG/1.1/DTD/svg11.dtd">
<svg xmlns="http://www.w3.org/2000/svg" version="1.1" width="640px" height="267px" style="shape-rendering:geometricPrecision; text-rendering:geometricPrecision; image-rendering:optimizeQuality; fill-rule:evenodd; clip-rule:evenodd" xmlns:xlink="http://www.w3.org/1999/xlink">
<g><path style="opacity:0.968" fill="#e1001a" d="M 167.5,55.5 C 150.497,55.3334 133.497,55.5001 116.5,56C 115.956,56.7172 115.289,57.2172 114.5,57.5C 114.16,53.8691 114.994,50.5358 117,47.5C 132.5,32 148,16.5 163.5,1C 164.793,0.50999 166.127,0.343323 167.5,0.5C 167.5,18.8333 167.5,37.1667 167.5,55.5 Z"/></g>
<g><path style="opacity:0.994" fill="#e10019" d="M 106.5,63.5 C 105.262,62.5876 103.928,62.4209 102.5,63C 85.971,79.1952 69.8043,95.6952 54,112.5C 53.5001,128.497 53.3334,144.497 53.5,160.5C 53.1667,160.5 52.8333,160.5 52.5,160.5C 35.2563,160.825 18.0896,160.492 1,159.5C 0.333333,125.167 0.333333,90.8333 1,56.5C 35.4286,55.3376 69.9286,55.1709 104.5,56C 106.113,58.2276 106.78,60.7276 106.5,63.5 Z"/></g>
<g><path style="opacity:0.997" fill="#7c8890" d="M 167.5,55.5 C 184.503,55.3334 201.503,55.5001 218.5,56C 219.126,56.7504 219.626,57.5838 220,58.5C 220.986,92.2519 220.652,125.919 219,159.5C 184.571,160.662 150.071,160.829 115.5,160C 114.577,157.959 114.244,155.792 114.5,153.5C 115.552,153.649 116.552,153.483 117.5,153C 133.333,137.167 149.167,121.333 165,105.5C 165.667,104.167 166.333,102.833 167,101.5C 167.5,86.1703 167.667,70.837 167.5,55.5 Z"/></g>
<g><path style="opacity:0.962" fill="#e2001a" d="M 272.5,55.5 C 287.217,55.0866 301.884,55.5866 316.5,57C 335.262,63.0982 346.095,75.9315 349,95.5C 352.484,117.1 346.65,135.6 331.5,151C 325.596,155.617 318.929,158.617 311.5,160C 298.258,160.822 285.091,160.655 272,159.5C 271.174,124.762 271.341,90.0952 272.5,55.5 Z M 290.5,70.5 C 316.263,68.5948 329.263,80.5948 329.5,106.5C 330.224,121.196 324.891,133.029 313.5,142C 306.149,145.051 298.482,146.218 290.5,145.5C 290.5,120.5 290.5,95.5 290.5,70.5 Z"/></g>
<g><path style="opacity:0.955" fill="#e2001a" d="M 367.5,55.5 C 373.176,55.3339 378.843,55.5006 384.5,56C 385.126,56.7504 385.626,57.5838 386,58.5C 386.5,71.4957 386.667,84.4957 386.5,97.5C 398.167,97.5 409.833,97.5 421.5,97.5C 421.333,83.8293 421.5,70.1626 422,56.5C 427.75,55.3594 433.584,55.1928 439.5,56C 440.163,73.2611 440.497,90.5945 440.5,108C 440.497,125.406 440.163,142.739 439.5,160C 436.667,160.167 433.833,160.333 431,160.5C 427.724,160.442 424.724,159.776 422,158.5C 421.5,143.504 421.333,128.504 421.5,113.5C 409.833,113.5 398.167,113.5 386.5,113.5C 386.667,128.17 386.5,142.837 386,157.5C 385.626,158.416 385.126,159.25 384.5,160C 379.167,160.667 373.833,160.667 368.5,160C 368,159.5 367.5,159 367,158.5C 366.18,124.125 366.347,89.7916 367.5,55.5 Z"/></g>
<g><path style="opacity:0.955" fill="#5c6870" d="M 462.5,55.5 C 475.171,55.3334 487.838,55.5001 500.5,56C 521.336,61.837 527.502,74.6704 519,94.5C 515.358,99.1465 510.858,102.646 505.5,105C 521.333,110.158 527.833,120.991 525,137.5C 521.127,150.698 512.293,158.198 498.5,160C 486.505,160.5 474.505,160.667 462.5,160.5C 462.5,125.5 462.5,90.5 462.5,55.5 Z M 474.5,65.5 C 481.841,65.3337 489.174,65.5003 496.5,66C 509.993,70.8051 513.493,79.6384 507,92.5C 504.736,95.4335 501.902,97.6001 498.5,99C 490.585,100.401 482.585,100.901 474.5,100.5C 474.5,88.8333 474.5,77.1667 474.5,65.5 Z M 474.5,110.5 C 481.508,110.334 488.508,110.5 495.5,111C 511.412,115.324 516.245,125.157 510,140.5C 506.635,145.186 502.135,148.353 496.5,150C 489.174,150.5 481.841,150.666 474.5,150.5C 474.5,137.167 474.5,123.833 474.5,110.5 Z"/></g>
<g><path style="opacity:0.963" fill="#5c6870" d="M 639.5,56.5 C 639.5,57.5 639.5,58.5 639.5,59.5C 632.244,92.2756 625.411,125.276 619,158.5C 618.5,159 618,159.5 617.5,160C 613.5,160.667 609.5,160.667 605.5,160C 605,159.5 604.5,159 604,158.5C 598.588,130.107 592.921,101.774 587,73.5C 581.461,102.194 575.795,130.86 570,159.5C 565.587,160.632 561.087,160.799 556.5,160C 548.543,125.381 541.543,90.5474 535.5,55.5C 539.997,54.9445 544.164,55.6112 548,57.5C 552.953,85.2167 558.119,112.883 563.5,140.5C 569.318,113.246 574.818,85.9123 580,58.5C 580.374,57.5838 580.874,56.7504 581.5,56C 585.871,55.1725 590.205,55.3391 594.5,56.5C 600.144,84.8852 605.977,113.219 612,141.5C 616.871,113.477 621.871,85.4767 627,57.5C 630.922,55.1618 635.089,54.8285 639.5,56.5 Z"/></g>
<g><path style="opacity:1" fill="#8e1016" d="M 167.5,55.5 C 167.667,70.837 167.5,86.1703 167,101.5C 166.333,102.833 165.667,104.167 165,105.5C 149.167,121.333 133.333,137.167 117.5,153C 116.552,153.483 115.552,153.649 114.5,153.5C 114.5,121.5 114.5,89.5 114.5,57.5C 115.289,57.2172 115.956,56.7172 116.5,56C 133.497,55.5001 150.497,55.3334 167.5,55.5 Z"/></g>
<g><path style="opacity:1" fill="#8f0f16" d="M 106.5,63.5 C 106.5,94.8333 106.5,126.167 106.5,157.5C 105.373,158.122 104.373,158.955 103.5,160C 86.8367,160.5 70.17,160.667 53.5,160.5C 53.3334,144.497 53.5001,128.497 54,112.5C 69.8043,95.6952 85.971,79.1952 102.5,63C 103.928,62.4209 105.262,62.5876 106.5,63.5 Z"/></g>
<g><path style="opacity:0.967" fill="#7d898f" d="M 106.5,157.5 C 106.283,161.985 104.783,165.985 102,169.5C 86.6227,185.379 70.7893,200.712 54.5,215.5C 53.914,215.291 53.414,214.957 53,214.5C 52.5001,196.503 52.3334,178.503 52.5,160.5C 52.8333,160.5 53.1667,160.5 53.5,160.5C 70.17,160.667 86.8367,160.5 103.5,160C 104.373,158.955 105.373,158.122 106.5,157.5 Z"/></g>
<g><path style="opacity:0.948" fill="#5c6870" d="M 334.5,183.5 C 335.833,183.5 337.167,183.5 338.5,183.5C 338.334,192.506 338.5,201.506 339,210.5C 339.414,210.043 339.914,209.709 340.5,209.5C 341.429,210.689 341.762,212.022 341.5,213.5C 338.956,213.896 336.789,213.229 335,211.5C 334.5,202.173 334.334,192.839 334.5,183.5 Z"/></g>
<g><path style="opacity:0.907" fill="#5d6871" d="M 438.5,183.5 C 439.833,183.5 441.167,183.5 442.5,183.5C 442.183,186.572 442.516,189.572 443.5,192.5C 447.616,190.685 450.782,191.685 453,195.5C 453.499,201.157 453.666,206.824 453.5,212.5C 452.167,212.5 450.833,212.5 449.5,212.5C 449.666,207.156 449.499,201.823 449,196.5C 446.724,193.936 444.724,194.27 443,197.5C 442.501,202.489 442.334,207.489 442.5,212.5C 441.167,212.5 439.833,212.5 438.5,212.5C 438.5,202.833 438.5,193.167 438.5,183.5 Z"/></g>
<g><path style="opacity:0.996" fill="#5c6870" d="M 493.5,183.5 C 494.833,183.5 496.167,183.5 497.5,183.5C 497.335,186.85 497.502,190.183 498,193.5C 501.534,190.799 504.867,191.133 508,194.5C 508.499,200.491 508.666,206.491 508.5,212.5C 507.5,212.5 506.5,212.5 505.5,212.5C 505.666,207.821 505.499,203.155 505,198.5C 503.193,193.75 500.86,193.417 498,197.5C 497.501,202.489 497.334,207.489 497.5,212.5C 496.167,212.5 494.833,212.5 493.5,212.5C 493.5,202.833 493.5,193.167 493.5,183.5 Z"/></g>
<g><path style="opacity:0.841" fill="#5d6971" d="M 535.5,183.5 C 536.833,183.5 538.167,183.5 539.5,183.5C 539.334,192.506 539.5,201.506 540,210.5C 540.414,210.043 540.914,209.709 541.5,209.5C 542.429,210.689 542.762,212.022 542.5,213.5C 539.956,213.896 537.789,213.229 536,211.5C 535.5,202.173 535.334,192.839 535.5,183.5 Z"/></g>
<g><path style="opacity:0.892" fill="#5c6870" d="M 271.5,185.5 C 286.459,184.288 292.292,190.955 289,205.5C 284.99,211.976 279.157,214.309 271.5,212.5C 271.5,203.5 271.5,194.5 271.5,185.5 Z M 275.5,188.5 C 282.239,188.738 285.906,192.238 286.5,199C 286.19,206.146 282.523,209.646 275.5,209.5C 275.5,202.5 275.5,195.5 275.5,188.5 Z"/></g>
<g><path style="opacity:0.844" fill="#5d6971" d="M 376.5,185.5 C 377.833,185.5 379.167,185.5 380.5,185.5C 380.5,189.5 380.5,193.5 380.5,197.5C 383.833,197.5 387.167,197.5 390.5,197.5C 390.5,193.5 390.5,189.5 390.5,185.5C 391.833,185.5 393.167,185.5 394.5,185.5C 394.5,194.5 394.5,203.5 394.5,212.5C 393.167,212.5 391.833,212.5 390.5,212.5C 390.5,208.5 390.5,204.5 390.5,200.5C 387.167,200.5 383.833,200.5 380.5,200.5C 380.5,204.5 380.5,208.5 380.5,212.5C 379.167,212.5 377.833,212.5 376.5,212.5C 376.5,203.5 376.5,194.5 376.5,185.5 Z"/></g>
<g><path style="opacity:0.806" fill="#5c6870" d="M 318.5,191.5 C 322.684,190.704 325.85,192.037 328,195.5C 328.499,201.157 328.666,206.824 328.5,212.5C 325.468,212.505 322.468,212.838 319.5,213.5C 314.21,212.696 312.377,209.696 314,204.5C 316.707,202.064 319.873,200.564 323.5,200C 324.018,194.308 321.685,193.142 316.5,196.5C 315.713,195.758 315.047,194.925 314.5,194C 315.858,193.066 317.192,192.232 318.5,191.5 Z M 323.5,202.5 C 325.431,206.207 324.431,208.874 320.5,210.5C 318.058,209.616 317.225,207.949 318,205.5C 319.876,204.391 321.709,203.391 323.5,202.5 Z"/></g>
<g><path style="opacity:0.78" fill="#5b676f" d="M 349.5,191.5 C 357.478,191.486 360.811,195.486 359.5,203.5C 355.833,203.5 352.167,203.5 348.5,203.5C 349.051,210.225 352.217,211.892 358,208.5C 358.5,209.5 359,210.5 359.5,211.5C 354.721,214.411 350.221,214.077 346,210.5C 343.113,203.237 344.28,196.903 349.5,191.5 Z M 351.5,194.5 C 354.353,195.189 356.019,197.022 356.5,200C 353.854,200.497 351.187,200.664 348.5,200.5C 348.615,198.053 349.615,196.053 351.5,194.5 Z"/></g>
<g><path style="opacity:0.85" fill="#5a666d" d="M 405.5,191.5 C 412.539,191.371 416.206,194.871 416.5,202C 415.771,212.604 410.938,215.437 402,210.5C 397.883,203.053 399.05,196.72 405.5,191.5 Z M 407.5,194.5 C 412.764,198.04 413.764,202.706 410.5,208.5C 408.758,210.973 406.925,210.973 405,208.5C 402.374,203.001 403.207,198.334 407.5,194.5 Z"/></g>
<g><path style="opacity:0.848" fill="#5c6970" d="M 425.5,191.5 C 427.527,191.338 429.527,191.505 431.5,192C 433.497,193.153 433.83,194.653 432.5,196.5C 430.922,195.36 429.256,194.86 427.5,195C 422.626,199.877 422.626,204.877 427.5,210C 429.432,210.138 431.266,209.638 433,208.5C 435.485,211.007 434.985,212.507 431.5,213C 426.726,214.361 423.226,212.861 421,208.5C 419.268,201.84 420.768,196.174 425.5,191.5 Z"/></g>
<g><path style="opacity:0.854" fill="#5c686f" d="M 462.5,191.5 C 464.527,191.338 466.527,191.505 468.5,192C 469.973,192.71 470.64,193.876 470.5,195.5C 468.738,195.643 467.071,195.309 465.5,194.5C 464.098,194.865 463.098,195.699 462.5,197C 464.952,199.829 467.785,202.329 471,204.5C 472.379,208.475 471.213,211.309 467.5,213C 463.948,213.85 460.615,213.35 457.5,211.5C 457.919,210.328 458.585,209.328 459.5,208.5C 462.479,211.248 465.145,211.081 467.5,208C 465.048,205.171 462.215,202.671 459,200.5C 457.98,196.553 459.147,193.553 462.5,191.5 Z"/></g>
<g><path style="opacity:0.85" fill="#5c676f" d="M 481.5,191.5 C 484.4,191.28 487.067,191.946 489.5,193.5C 489,194.5 488.5,195.5 488,196.5C 482.274,193.677 479.441,195.677 479.5,202.5C 479.441,209.323 482.274,211.323 488,208.5C 490.152,210.277 489.985,211.777 487.5,213C 481.85,214.758 478.017,212.924 476,207.5C 474.199,200.729 476.033,195.396 481.5,191.5 Z"/></g>
<g><path style="opacity:0.821" fill="#5c686f" d="M 550.5,191.5 C 558,191.767 561.334,195.767 560.5,203.5C 556.445,203.176 552.445,203.509 548.5,204.5C 550.154,210.333 553.487,211.666 558.5,208.5C 559.429,209.689 559.762,211.022 559.5,212.5C 548.649,215.156 543.815,210.823 545,199.5C 545.625,195.891 547.458,193.224 550.5,191.5 Z M 552.5,194.5 C 555.32,195.465 556.653,197.465 556.5,200.5C 547.728,202.041 546.395,200.041 552.5,194.5 Z"/></g>
<g><path style="opacity:0.898" fill="#5c686f" d="M 293.5,192.5 C 294.833,192.5 296.167,192.5 297.5,192.5C 297.334,197.511 297.501,202.511 298,207.5C 300.546,211.116 302.879,210.782 305,206.5C 305.499,201.845 305.666,197.179 305.5,192.5C 306.5,192.5 307.5,192.5 308.5,192.5C 308.5,199.167 308.5,205.833 308.5,212.5C 307.178,212.67 306.011,212.337 305,211.5C 301.381,214.343 298.048,214.01 295,210.5C 293.639,204.593 293.139,198.593 293.5,192.5 Z"/></g>
<g><path style="opacity:0.812" fill="#5c6770" d="M 514.5,192.5 C 515.833,192.5 517.167,192.5 518.5,192.5C 518.334,197.844 518.501,203.177 519,208.5C 521.321,211.033 523.321,210.699 525,207.5C 525.499,202.511 525.666,197.511 525.5,192.5C 526.833,192.5 528.167,192.5 529.5,192.5C 529.5,199.167 529.5,205.833 529.5,212.5C 526.682,211.603 523.849,211.936 521,213.5C 519.105,213.385 517.438,212.718 516,211.5C 514.584,205.285 514.084,198.952 514.5,192.5 Z"/></g>
<g><path style="opacity:0.877" fill="#5c6870" d="M 323.5,227.5 C 324.5,227.5 325.5,227.5 326.5,227.5C 326.5,237.167 326.5,246.833 326.5,256.5C 325.178,256.67 324.011,256.337 323,255.5C 318.276,258.568 314.609,257.568 312,252.5C 309.29,246.115 310.456,240.615 315.5,236C 318.347,235.056 320.847,235.556 323,237.5C 323.498,234.183 323.665,230.85 323.5,227.5 Z M 317.5,238.5 C 321.876,239.212 323.876,241.879 323.5,246.5C 323.474,251.543 321.14,253.543 316.5,252.5C 313.639,247.551 313.972,242.885 317.5,238.5 Z"/></g>
<g><path style="opacity:0.779" fill="#5c686f" d="M 530.5,227.5 C 531.833,227.5 533.167,227.5 534.5,227.5C 534.183,230.572 534.516,233.572 535.5,236.5C 539.221,234.757 542.388,235.424 545,238.5C 549.719,252.595 544.886,258.595 530.5,256.5C 530.5,246.833 530.5,237.167 530.5,227.5 Z M 537.5,238.5 C 541.26,239.49 543.26,241.99 543.5,246C 542.749,251.254 539.749,253.754 534.5,253.5C 534.334,249.486 534.501,245.486 535,241.5C 536.045,240.627 536.878,239.627 537.5,238.5 Z"/></g>
<g><path style="opacity:0.804" fill="#5c6870" d="M 420.5,228.5 C 424.161,228.35 425.161,229.85 423.5,233C 422.551,233.617 421.718,233.451 421,232.5C 420.51,231.207 420.343,229.873 420.5,228.5 Z"/></g>
<g><path style="opacity:0.887" fill="#5c686f" d="M 271.5,229.5 C 275.514,229.334 279.514,229.501 283.5,230C 287.292,232.053 288.458,235.219 287,239.5C 286.167,240.333 285.333,241.167 284.5,242C 290.062,247.163 289.729,251.829 283.5,256C 279.514,256.499 275.514,256.666 271.5,256.5C 271.5,247.5 271.5,238.5 271.5,229.5 Z M 275.5,232.5 C 277.527,232.338 279.527,232.505 281.5,233C 284.167,235.333 284.167,237.667 281.5,240C 279.527,240.495 277.527,240.662 275.5,240.5C 275.5,237.833 275.5,235.167 275.5,232.5 Z M 275.5,243.5 C 279.52,243.214 282.52,244.714 284.5,248C 283.136,252.355 280.136,254.188 275.5,253.5C 275.5,250.167 275.5,246.833 275.5,243.5 Z"/></g>
<g><path style="opacity:0.859" fill="#5d6971" d="M 383.5,229.5 C 385.144,229.286 386.644,229.62 388,230.5C 389.206,236.861 390.539,243.194 392,249.5C 393.823,243.21 395.489,236.877 397,230.5C 399.022,229.009 400.688,229.342 402,231.5C 403.213,237.36 404.879,243.027 407,248.5C 408.362,242.19 409.529,235.857 410.5,229.5C 411.833,229.5 413.167,229.5 414.5,229.5C 412.987,238.22 411.154,246.887 409,255.5C 407.506,256.747 406.006,256.747 404.5,255.5C 402.821,249.116 400.988,242.783 399,236.5C 397.18,243.111 395.68,249.778 394.5,256.5C 392.833,256.5 391.167,256.5 389.5,256.5C 387.657,247.461 385.657,238.461 383.5,229.5 Z"/></g>
<g><path style="opacity:0.818" fill="#5c666d" d="M 427.5,228.5 C 431.161,228.35 432.161,229.85 430.5,233C 426.707,233.487 425.707,231.987 427.5,228.5 Z"/></g>
<g><path style="opacity:0.905" fill="#5c6870" d="M 454.5,230.5 C 455.5,230.5 456.5,230.5 457.5,230.5C 457.5,232.167 457.5,233.833 457.5,235.5C 458.833,235.5 460.167,235.5 461.5,235.5C 461.5,236.5 461.5,237.5 461.5,238.5C 460.167,238.5 458.833,238.5 457.5,238.5C 457.334,243.179 457.501,247.845 458,252.5C 463.5,254.101 463.667,255.767 458.5,257.5C 456.971,257.471 455.804,256.804 455,255.5C 454.501,249.843 454.334,244.176 454.5,238.5C 453.167,238.5 451.833,238.5 450.5,238.5C 450.5,237.5 450.5,236.5 450.5,235.5C 451.833,235.5 453.167,235.5 454.5,235.5C 454.5,233.833 454.5,232.167 454.5,230.5 Z"/></g>
<g><path style="opacity:0.957" fill="#5d6971" d="M 467.5,230.5 C 468.833,230.5 470.167,230.5 471.5,230.5C 471.5,232.167 471.5,233.833 471.5,235.5C 472.833,235.5 474.167,235.5 475.5,235.5C 475.5,236.5 475.5,237.5 475.5,238.5C 474.167,238.5 472.833,238.5 471.5,238.5C 471.5,243.5 471.5,248.5 471.5,253.5C 473.716,253.275 475.383,254.108 476.5,256C 473.44,258.229 470.773,257.896 468.5,255C 467.57,249.55 467.237,244.05 467.5,238.5C 466.5,238.5 465.5,238.5 464.5,238.5C 464.5,237.5 464.5,236.5 464.5,235.5C 465.5,235.5 466.5,235.5 467.5,235.5C 467.5,233.833 467.5,232.167 467.5,230.5 Z"/></g>
<g><path style="opacity:0.801" fill="#5b676f" d="M 294.5,235.5 C 298.257,235.071 301.757,235.737 305,237.5C 306.317,243.757 306.817,250.091 306.5,256.5C 304.856,256.714 303.356,256.38 302,255.5C 296.399,258.619 292.566,257.119 290.5,251C 292.951,246.262 296.951,243.762 302.5,243.5C 301.385,238.171 298.551,237.171 294,240.5C 291.99,238.604 292.157,236.937 294.5,235.5 Z M 300.5,246.5 C 303.431,249.927 302.598,252.594 298,254.5C 296.513,253.845 295.347,252.845 294.5,251.5C 295.96,249.028 297.96,247.361 300.5,246.5 Z"/></g>
<g><path style="opacity:0.851" fill="#5b666e" d="M 335.5,235.5 C 343.663,235.074 347.329,239.074 346.5,247.5C 342.445,247.176 338.445,247.509 334.5,248.5C 336.342,253.372 339.676,254.706 344.5,252.5C 345.429,253.689 345.762,255.022 345.5,256.5C 334.59,259.094 329.756,254.761 331,243.5C 331.738,240.352 333.238,237.685 335.5,235.5 Z M 337.5,238.5 C 341.009,238.808 342.676,240.808 342.5,244.5C 335.055,245.744 333.388,243.744 337.5,238.5 Z"/></g>
<g><path style="opacity:0.848" fill="#5c6970" d="M 351.5,235.5 C 353.124,235.36 354.29,236.027 355,237.5C 358.333,234.833 361.667,234.833 365,237.5C 366.416,243.715 366.916,250.048 366.5,256.5C 365.167,256.5 363.833,256.5 362.5,256.5C 362.666,251.156 362.499,245.823 362,240.5C 360.112,238.078 358.112,238.078 356,240.5C 355.501,245.823 355.334,251.156 355.5,256.5C 354.167,256.5 352.833,256.5 351.5,256.5C 351.5,249.5 351.5,242.5 351.5,235.5 Z"/></g>
<g><path style="opacity:0.891" fill="#5c6870" d="M 418.5,235.5 C 419.5,235.5 420.5,235.5 421.5,235.5C 421.149,241.262 421.649,246.928 423,252.5C 425.267,253.935 427.267,253.602 429,251.5C 429.499,246.177 429.666,240.844 429.5,235.5C 430.833,235.5 432.167,235.5 433.5,235.5C 433.5,242.5 433.5,249.5 433.5,256.5C 431.856,256.714 430.356,256.38 429,255.5C 426,258.167 423,258.167 420,255.5C 418.58,248.95 418.08,242.284 418.5,235.5 Z"/></g>
<g><path style="opacity:0.758" fill="#5d6971" d="M 438.5,235.5 C 441.731,236.368 445.065,236.368 448.5,235.5C 448.762,236.978 448.429,238.311 447.5,239.5C 445.671,238.718 444.171,239.384 443,241.5C 442.501,246.489 442.334,251.489 442.5,256.5C 441.167,256.5 439.833,256.5 438.5,256.5C 438.5,249.5 438.5,242.5 438.5,235.5 Z"/></g>
<g><path style="opacity:0.89" fill="#5c6770" d="M 483.5,235.5 C 491.919,234.924 495.585,238.924 494.5,247.5C 490.445,247.176 486.445,247.509 482.5,248.5C 484.342,253.372 487.676,254.706 492.5,252.5C 493.429,253.689 493.762,255.022 493.5,256.5C 483.749,259.423 478.749,255.757 478.5,245.5C 479.123,241.586 480.79,238.253 483.5,235.5 Z M 485.5,238.5 C 489.009,238.808 490.676,240.808 490.5,244.5C 482.66,246.153 480.993,244.153 485.5,238.5 Z"/></g>
<g><path style="opacity:0.887" fill="#5c6870" d="M 499.5,235.5 C 501.124,235.36 502.29,236.027 503,237.5C 506.262,234.923 509.595,234.923 513,237.5C 517.062,234.571 520.728,234.904 524,238.5C 524.499,244.491 524.666,250.491 524.5,256.5C 523.5,256.5 522.5,256.5 521.5,256.5C 521.666,251.489 521.499,246.489 521,241.5C 518.872,237.624 516.539,237.624 514,241.5C 513.501,246.489 513.334,251.489 513.5,256.5C 512.5,256.5 511.5,256.5 510.5,256.5C 510.666,251.489 510.499,246.489 510,241.5C 507.334,237.478 505.001,237.811 503,242.5C 502.501,247.155 502.334,251.821 502.5,256.5C 501.5,256.5 500.5,256.5 499.5,256.5C 499.5,249.5 499.5,242.5 499.5,235.5 Z"/></g>
<g><path style="opacity:0.839" fill="#5d6871" d="M 554.5,235.5 C 562.94,234.944 566.606,238.944 565.5,247.5C 561.486,247.334 557.486,247.501 553.5,248C 555.013,253.322 558.346,254.822 563.5,252.5C 565.003,253.59 565.336,254.757 564.5,256C 554.958,259.486 550.291,256.153 550.5,246C 550.04,241.762 551.374,238.262 554.5,235.5 Z M 556.5,238.5 C 560.314,238.651 561.981,240.651 561.5,244.5C 559.167,244.5 556.833,244.5 554.5,244.5C 554.253,242.142 554.919,240.142 556.5,238.5 Z"/></g>
<g><path style="opacity:0.944" fill="#5d6870" d="M 570.5,235.5 C 572.124,235.36 573.29,236.027 574,237.5C 575.789,235.771 577.956,235.104 580.5,235.5C 580.688,237.103 580.188,238.437 579,239.5C 577.657,238.786 576.324,239.12 575,240.5C 574.501,245.823 574.334,251.156 574.5,256.5C 573.167,256.5 571.833,256.5 570.5,256.5C 570.5,249.5 570.5,242.5 570.5,235.5 Z"/></g>
<g><path style="opacity:0.841" fill="#5b676f" d="M 586.5,235.5 C 590.833,235.5 595.167,235.5 599.5,235.5C 599.5,236.5 599.5,237.5 599.5,238.5C 596.425,238.251 595.758,239.585 597.5,242.5C 596.592,248.241 593.259,251.408 587.5,252C 590.5,253 593.5,254 596.5,255C 599.592,259.118 598.925,262.451 594.5,265C 590.428,265.956 586.595,265.456 583,263.5C 580.791,259.793 581.624,256.96 585.5,255C 584.233,253.204 584.233,251.371 585.5,249.5C 581.363,244.516 581.697,239.849 586.5,235.5 Z M 588.5,238.5 C 592.968,238.748 594.468,241.082 593,245.5C 589.828,248.388 587.661,247.722 586.5,243.5C 586.902,241.7 587.569,240.033 588.5,238.5 Z M 587.5,256.5 C 590.798,256.016 593.464,257.016 595.5,259.5C 593.559,262.334 590.893,263.168 587.5,262C 584.982,260.19 584.982,258.357 587.5,256.5 Z"/></g>
<g><path style="opacity:0.837" fill="#5d6971" d="M 371.5,242.5 C 374.5,242.5 377.5,242.5 380.5,242.5C 380.5,243.5 380.5,244.5 380.5,245.5C 377.5,245.5 374.5,245.5 371.5,245.5C 371.5,244.5 371.5,243.5 371.5,242.5 Z"/></g>
</svg>
